<?xml version="1.0" encoding="utf-8"?>
<!-- Generator: Adobe Illustrator 16.0.0, SVG Export Plug-In . SVG Version: 6.00 Build 0)  -->
<!DOCTYPE svg PUBLIC "-//W3C//DTD SVG 1.1//EN" "http://www.w3.org/Graphics/SVG/1.1/DTD/svg11.dtd">
<svg version="1.1" id="Capa_1" xmlns="http://www.w3.org/2000/svg" xmlns:xlink="http://www.w3.org/1999/xlink" x="0px" y="0px"
	 width="20px" height="20px" viewBox="0 0 20 20" enable-background="new 0 0 20 20" xml:space="preserve">
<g>
	<g>
		<g>
			<path fill="#FFFFFF" d="M13.876,19.001H6.122C3.298,19.001,1,16.702,1,13.877V6.123C1,3.3,3.298,0.999,6.122,0.999h7.754
				C16.701,0.999,19,3.3,19,6.123v7.754C19,16.702,16.701,19.001,13.876,19.001z M6.122,2.544c-1.974,0-3.58,1.605-3.58,3.579v7.754
				c0,1.973,1.606,3.581,3.58,3.581h7.754c1.974,0,3.581-1.608,3.581-3.581V6.123c0-1.974-1.607-3.579-3.581-3.579H6.122z"/>
		</g>
		<g>
			<path fill="#FFFFFF" d="M10,14.606c-2.542,0-4.61-2.067-4.61-4.607S7.458,5.392,10,5.392c2.54,0,4.609,2.067,4.609,4.607
				S12.54,14.606,10,14.606z M10,6.934c-1.692,0-3.067,1.376-3.067,3.065c0,1.691,1.375,3.067,3.067,3.067
				c1.688,0,3.067-1.376,3.067-3.067C13.067,8.31,11.688,6.934,10,6.934z"/>
		</g>
		<g>
			<path fill="#FFFFFF" d="M15.915,5.128c0,0.61-0.497,1.107-1.107,1.107c-0.615,0-1.107-0.497-1.107-1.107
				c0-0.613,0.492-1.107,1.107-1.107C15.418,4.021,15.915,4.515,15.915,5.128z"/>
		</g>
	</g>
</g>
</svg>
